<?xml version="1.0" encoding="UTF-8"?>
<svg id="Layer_2" data-name="Layer 2" xmlns="http://www.w3.org/2000/svg" viewBox="0 0 28.08 24.49">
  <defs>
    <style>
      .cls-1 {
        fill: #000;
        stroke-width: 0px;
      }
    </style>
  </defs>
  <g id="Layer_1-2" data-name="Layer 1">
    <g>
      <path class="cls-1" d="M19.02,15.63c0,5.25-3.87,8.86-9.49,8.86S0,20.88,0,15.66c0-2.45.73-4.88,2.74-8.24L7.14,0h6.91c-1.58,2.64-3.17,5.27-4.75,7.91.52-.08,1.04-.12,1.58-.12,4.79,0,8.13,3.21,8.13,7.83ZM12.85,15.63c0-2.02-1.38-3.4-3.34-3.4s-3.34,1.38-3.34,3.4,1.41,3.37,3.34,3.37,3.34-1.36,3.34-3.37Z"/>
      <path class="cls-1" d="M21.58,17.72h6.5v6.22h-6.5v-6.22Z"/>
    </g>
  </g>
</svg>